# xmcd
#
# Track frame offsets:
#	150
#	21431
#	38574
#	56226
#	76901
#	97304
#	116849
#	134345
#	147131
#	165899
#	181676
#	204281
#	221034
#	237865
#	253869
#	267744
#	282226
#
# Disc length: 4003 seconds
#
# Revision: 1
# Processed by: cddbd v1.5.1PL0 Copyright (c) Steve Scherf et al.
# Submitted via: dBpowerAMP V4.0
#
DISCID=fb0fa111
DTITLE=Alan e Alex  - ACUSTICO 2005
DYEAR=1900
DGENRE=
TTITLE0=dou avida por um beijo
TTITLE1=saudade
TTITLE2=hoje eu sei
TTITLE3=somos assim
TTITLE4=doces palavras
TTITLE5=feito tatuagem
TTITLE6=boat azul
TTITLE7=fio de cabelo
TTITLE8=desatino ( eduasdo costa )
TTITLE9=Quem sera seu outro amor
TTITLE10=a minha vida
TTITLE11=tranque a porta e me beija
TTITLE12=de alma e coração
TTITLE13=Quem ama sabe
TTITLE14=bate forte coração
TTITLE15=vou pra galera
TTITLE16=o melhor de mim
EXTD=alan e alex acustico 2005
EXTT0=
EXTT1=
EXTT2=
EXTT3=
EXTT4=
EXTT5=
EXTT6=
EXTT7=
EXTT8=
EXTT9=
EXTT10=
EXTT11=
EXTT12=
EXTT13=
EXTT14=
EXTT15=
EXTT16=
PLAYORDER=
